<svg width="375" height="812" viewBox="0 0 375 812" fill="none" xmlns="http://www.w3.org/2000/svg">
<g clip-path="url(#clip0_1099_338)">
<rect width="375" height="812" rx="16" fill="#FEFEFE"/>
<path d="M212.464 774.566C212.131 783.771 211.817 792.419 211.563 799.611H252.496L247.479 772.147L212.464 774.566Z" fill="#E04385" fill-opacity="0.3"/>
<path d="M46.1068 786.061L46.4791 799.611H207.487C207.761 791.991 208.055 783.557 208.369 774.845L46.1068 786.061Z" fill="#E04385" fill-opacity="0.3"/>
<path d="M249.557 771.997L254.593 799.611H330.051L329.13 766.496L249.557 771.997Z" fill="#E04385" fill-opacity="0.3"/>
<path d="M44.0694 786.189L2.23512 789.079L2.05878 786.104L2 799.611H44.4221L44.0694 786.189Z" fill="#E04385" fill-opacity="0.3"/>
<path d="M335.714 634.295L337.282 691.106L373.982 688.837L374.1 691.063L337.34 693.332L339.202 761.338L373.904 758.94L374.159 763.393L339.339 765.79L340.26 799.611H374.08L374.805 610L340.221 613.81L335.714 634.295Z" fill="#E04385" fill-opacity="0.3"/>
<g opacity="0.5">
<path d="M210.66 715.568C210.327 724.772 210.014 733.42 209.759 740.612H250.692L245.676 713.149L210.66 715.568Z" fill="#E04385" fill-opacity="0.3"/>
<path d="M44.3029 727.063L44.6752 740.612H205.683C205.957 732.992 206.251 724.558 206.565 715.846L44.3029 727.063Z" fill="#E04385" fill-opacity="0.3"/>
<path d="M247.753 712.999L252.789 740.612H328.247L327.326 707.498L247.753 712.999Z" fill="#E04385" fill-opacity="0.3"/>
<path d="M214.756 327.078L229.02 236.703L191.634 233.664V327.078H214.756Z" fill="#E04385" fill-opacity="0.5"/>
<path d="M40.9525 676.888L0.391937 694.248L0.254761 725.628L42.1478 722.739L40.9525 676.888Z" fill="#E04385" fill-opacity="0.3"/>
<path d="M40.7564 669.824L38.5422 585.657H38.5031V555.967L0.901239 560.313L0.411377 687.034L40.7369 669.781L40.7564 669.824Z" fill="#E04385" fill-opacity="0.5"/>
<path d="M38.5032 489.696L1.19522 484.323L0.920898 553.591L38.5032 549.246V489.696Z" fill="#E04385" fill-opacity="0.3"/>
<path d="M316.608 557.23L315.04 581.333L270.972 586.535L274.382 605.628L324.426 601.497L323.662 574.141L327.659 556.01L316.608 557.23Z" fill="#E04385" fill-opacity="0.3"/>
<path d="M237.191 608.69L272.344 605.8L264.682 562.946L234.017 566.328L237.191 608.69Z" fill="#E04385" fill-opacity="0.3"/>
<path d="M237.525 613.12L240.209 648.846L244.971 697.865L246.93 708.589L327.209 703.024L324.544 605.971L237.525 613.12Z" fill="#E04385" fill-opacity="0.5"/>
<path d="M99.3639 444.466L102.46 450.246L40.5608 489.696V583.26L105.889 578.208L231.803 564.337L227.198 502.989L106.908 485.864L107.692 479.229L226.689 496.289L218.851 392.472L101.069 404.844L100.677 400.413L218.518 388.041L214.442 333.863H101.186L1.70495 353.642L1.21509 477.688L38.8953 483.103L99.3639 444.466ZM46.8899 574.334C46.8899 574.334 47.3601 497.274 46.8899 494.298L97.4045 464.951L103.949 570.395L46.8899 574.334Z" fill="#E04385" fill-opacity="0.3"/>
<path d="M312.493 557.68L266.72 562.732L270.188 582.147L311.219 577.309L312.493 557.68Z" fill="#E04385" fill-opacity="0.3"/>
<path d="M211.248 699.021C211.092 703.088 210.954 707.112 210.817 711.072L244.872 708.718L243.129 699.128L211.248 699.021Z" fill="#E04385" fill-opacity="0.3"/>
<path d="M137.867 327.077L143.863 297.345H189.597V233.514L46.596 221.933V281.89L1.94015 292.914L1.72461 346.728L100.638 327.077H137.867Z" fill="#E04385" fill-opacity="0.5"/>
<path d="M233.292 149.518L232.058 144.038L286.668 120.492L251.143 42.4899C250.495 42.6017 249.839 42.659 249.183 42.6611L188.852 42.3186L190.498 151.337L233.292 149.518Z" fill="#E04385" fill-opacity="0.3"/>
<path d="M316.04 107.649V1.30561L276.302 1.09155C274.496 1.12217 272.713 1.54229 271.055 2.32781C269.398 3.11332 267.899 4.24875 266.645 5.66889C265.39 7.08902 264.405 8.76589 263.745 10.6032C263.086 12.4405 262.765 14.402 262.801 16.3752V27.3562C262.802 29.8124 262.269 32.2337 261.247 34.4215C260.226 36.6094 258.744 38.5015 256.923 39.9427L292.468 117.881L316.04 107.649Z" fill="#E04385" fill-opacity="0.5"/>
<path d="M110.767 112.23L106.163 0.235455H95.0918L51.9839 0L33.5847 100.135L110.767 112.23ZM100.97 11.6232L102.44 102.833L45.0475 93.6495L57.5684 11.5804L100.97 11.6232Z" fill="#E04385" fill-opacity="0.3"/>
<path d="M112.845 112.551V113.493C112.943 122.247 113.1 137.959 113.217 154.784L188.421 151.423L186.775 42.2547L141.277 42.0192C139.47 41.9721 137.69 41.5355 136.038 40.7346C134.387 39.9336 132.897 38.784 131.653 37.3518C130.409 35.9197 129.437 34.2332 128.792 32.3893C128.147 30.5454 127.841 28.5804 127.894 26.6072V15.6475C127.948 13.6726 127.645 11.7053 127.001 9.85892C126.357 8.01254 125.385 6.32352 124.141 4.88908C122.898 3.45465 121.406 2.30313 119.753 1.5008C118.101 0.698477 116.319 0.26119 114.511 0.214111H108.142L112.767 112.508L112.845 112.551Z" fill="#E04385" fill-opacity="0.3"/>
<path d="M27.4323 99.1507L45.6552 0C34.2781 0.218035 23.4313 5.29305 15.4367 14.1386C7.44205 22.9842 2.93503 34.8974 2.88044 47.3278L2.7041 96.7533L2.88044 95.2977L27.4323 99.1507Z" fill="#E04385" fill-opacity="0.3"/>
<path d="M40.4824 221.441L2.23392 218.337L1.95959 286.043L40.4824 276.539V221.441Z" fill="#E04385" fill-opacity="0.3"/>
<path d="M27.0208 101.334L2.70403 97.5239L2.27295 207.163L7.50468 207.592L27.0208 101.334Z" fill="#E04385" fill-opacity="0.3"/>
<path d="M104.282 668.539L104.929 580.52L40.5806 585.486L42.8535 671.729L104.282 668.539Z" fill="#E04385" fill-opacity="0.3"/>
<path d="M116.117 648.269L207.251 695.96C208.348 664.794 209.308 635.661 209.21 633.884L211.17 633.777L212.13 631.637C213.423 632.343 213.423 632.343 212.737 653.599C212.365 665.457 211.816 681.233 211.268 697.009H242.795L238.132 649.168L231.959 566.563L112.903 579.771L116.117 648.269Z" fill="#E04385" fill-opacity="0.3"/>
<path d="M339.514 502.154L338.495 490.531L229.256 502.946L233.841 564.102L328.169 553.699L339.514 502.154Z" fill="#E04385" fill-opacity="0.3"/>
<path d="M189.596 304.045H148.8L144.137 327.077H189.596V304.045Z" fill="#E04385" fill-opacity="0.3"/>
<path d="M322.643 311.815L220.438 304.088L216.284 330.46L220.575 387.72L328.345 376.396L322.643 311.815ZM224.122 330.417L229.608 313.763L318.371 319.907L323.525 367.534L227.139 380.014L224.122 330.417Z" fill="#E04385" fill-opacity="0.3"/>
<path d="M333.244 431.473L328.756 380.827L220.928 392.151L224.964 446.029L333.244 431.473Z" fill="#E04385" fill-opacity="0.3"/>
<path d="M42.2654 727.191L0.431169 730.08L0.254826 727.105L0.196045 740.612H42.6181L42.2654 727.191Z" fill="#E04385" fill-opacity="0.3"/>
<path d="M374.196 82.5185L374.804 84.2095L375 49.1686C375.028 42.9207 373.929 36.7279 371.766 30.944C369.603 25.1601 366.418 19.8984 362.393 15.4596C358.368 11.0208 353.582 7.4918 348.308 5.07423C343.034 2.65667 337.376 1.39791 331.656 1.36987H318.078L318.175 106.707L374.196 82.5185Z" fill="#E04385" fill-opacity="0.5"/>
<path d="M207.173 698.358L114.158 649.66L110.866 579.899L106.947 580.327L106.3 670.68L42.912 673.955V675.967L44.1268 722.546L206.761 711.308C206.879 707.048 207.016 702.681 207.173 698.358ZM46.8897 679.692L135.633 672.906L193.378 702.168L46.8897 710.73V679.692Z" fill="#E04385" fill-opacity="0.3"/>
<path d="M347.763 199.65L351.486 174.991C318.175 161.976 315.824 123.981 315.922 112.465L294.133 121.884L326.934 193.785L347.763 199.65Z" fill="#E04385" fill-opacity="0.3"/>
<path d="M228.746 496.289L274.107 491.13L265.152 447.377L225.474 452.707L228.746 496.289Z" fill="#E04385" fill-opacity="0.3"/>
<path d="M326.582 242.547H241.875L234.84 241.969L225.278 302.568L325.837 310.167L323.486 283.817L333.381 244.902L326.582 242.547Z" fill="#E04385" fill-opacity="0.3"/>
<path d="M320.722 226.3L321.8 197.36L288.49 124.366L236.878 146.671L254.63 226.3H320.722ZM286.491 133.25L317 196.61L312.591 216.368L260.391 214.227L247.341 154.291L286.491 133.25Z" fill="#E04385" fill-opacity="0.3"/>
<path d="M333.91 575.297L335.478 632.107L372.178 629.838L372.296 632.064L335.536 634.333L337.398 702.339L372.1 699.942L372.355 704.394L337.535 706.791L338.456 740.612H372.276L373.001 551.001L338.417 554.812L333.91 575.297Z" fill="#E04385" fill-opacity="0.3"/>
<path d="M110.826 114.477L33.095 102.297L13.6572 208.084L111.159 215.982C111.551 199.693 111.218 149.732 110.826 114.477Z" fill="#E04385" fill-opacity="0.5"/>
<path d="M238.661 226.3H250.417L233.782 151.637L190.517 153.564L191.556 222.49L238.661 226.3Z" fill="#E04385" fill-opacity="0.3"/>
<path d="M113.158 216.132L189.577 222.319L188.538 153.671L113.315 157.01C113.413 180.235 113.472 205.002 113.158 216.132Z" fill="#E04385" fill-opacity="0.3"/>
<path d="M333.831 438.13L267.19 447.099L276.145 490.895L337.887 483.874L333.831 438.13Z" fill="#E04385" fill-opacity="0.3"/>
<path d="M351.898 172.743L356.169 145.087L374.569 146.65L374.804 87.0566L317.98 111.587C316.902 153.521 341.023 168.27 351.898 172.743Z" fill="#E04385" fill-opacity="0.5"/>
<path d="M330.05 279.707L332.381 305.843L373.941 308.99L374.157 255.155L339.357 243.146L330.05 279.707Z" fill="#E04385" fill-opacity="0.3"/>
<path d="M349.84 502.924L338.926 552.521L373.02 548.754L373.216 496.76C362.753 493.763 353.622 491.301 348.723 490.338L349.84 502.924Z" fill="#E04385" fill-opacity="0.3"/>
<path d="M326.836 227.135L374.196 243.489L374.313 214.056L327.796 200.913L326.836 227.135Z" fill="#E04385" fill-opacity="0.3"/>
<path d="M348.116 483.445C352.035 484.066 359.167 485.735 373.236 489.867L373.687 376.182L338.926 379.821L348.116 483.445Z" fill="#E04385" fill-opacity="0.3"/>
<path d="M338.534 375.326L373.706 371.623L373.922 315.69L332.969 312.607L338.534 375.326Z" fill="#E04385" fill-opacity="0.3"/>
<path d="M355.836 174.156C361.957 176.226 368.17 177.955 374.451 179.336V151.123L359.481 149.839L355.836 174.156Z" fill="#E04385" fill-opacity="0.3"/>
<path d="M351.721 200.763L374.334 207.185V181.691C368.455 180.406 362.185 178.672 355.386 176.425L351.721 200.763Z" fill="#E04385" fill-opacity="0.3"/>
<path d="M372.354 704.394L372.099 699.942L337.397 702.339L335.536 634.333L372.295 632.065L372.178 629.924L335.477 632.193L333.91 575.383L338.416 554.897L373.04 551.002V548.754L338.945 552.521L349.86 502.925L348.743 490.274C353.641 491.301 362.772 493.763 373.236 496.695V489.867C359.167 485.821 351.937 484.152 348.116 483.445L338.926 379.735L373.686 376.096V371.601L338.514 375.304L332.949 312.565L373.902 315.668V308.99L332.381 305.779L330.049 279.643L339.357 243.082L374.157 255.09V243.424L326.797 227.071L327.757 200.849L374.274 213.992V207.078L351.662 200.656L355.405 176.382C362.204 178.523 368.514 180.364 374.353 181.648V179.336C368.071 177.956 361.858 176.227 355.738 174.156L359.48 149.839L374.451 151.123V146.65L356.051 145.087L351.78 172.743C340.905 168.269 316.784 153.478 317.94 111.587L374.764 87.0565V84.2095L374.157 82.5185L318.175 106.707V1.24144H316.216V107.584L292.565 117.816L256.844 39.9428C255.157 41.2761 253.202 42.1494 251.142 42.49L286.667 120.364L232.057 143.91L233.292 149.39L190.497 151.295L188.852 42.3188H186.892L188.538 151.487L113.334 154.848C113.217 138.023 113.06 122.312 112.962 113.557V112.615L108.338 0.321H106.378L110.983 112.315L33.7219 100.178L52.1212 0.0427246H46.8698C46.5171 0.0427246 46.2036 0.0427246 45.8705 0.0427246L27.6476 99.1935L3.09573 95.3405L2.91938 96.7961V97.5667L27.2557 101.377L7.66125 207.634L2.42952 207.206V218.38L40.678 221.484V276.582L2.1552 286.086V292.936L46.811 281.912V221.976L189.851 233.556V297.388H143.882L137.906 327.185H100.676L1.76331 346.835V353.642L101.245 333.863H214.54L218.616 388.041L100.676 400.306L101.068 404.737L218.851 392.365L226.689 496.182L107.691 479.164L106.907 485.8L227.198 502.925L231.803 564.273L105.888 578.144L40.5604 583.195V489.696L102.459 450.245L99.3635 444.466L38.8949 482.996L1.21467 477.58V484.323L38.4442 489.696V549.246L0.861954 553.527V560.249L38.4638 555.968V585.657L40.678 669.824L0.352508 687.077V694.291L40.9131 676.931L42.1084 722.781L0.215332 725.671V727.148L0.391705 730.124L42.2259 727.234L42.5787 740.655H44.5381L44.1658 727.105L206.487 715.846C206.173 724.558 205.879 732.971 205.605 740.612H209.681C209.935 733.42 210.249 724.772 210.582 715.568L245.676 713.149L250.672 740.612H252.749L247.713 712.999L327.306 707.498L328.227 740.612H338.436M210.797 711.073C210.935 707.112 211.072 703.088 211.228 699.021L243.109 699.128L244.853 708.718L210.797 711.073ZM246.91 708.59L244.951 697.887L240.189 648.889L237.505 613.142L324.524 605.993L327.189 703.067L246.91 708.59ZM266.72 562.646L312.493 557.594L311.219 577.223L270.188 582.061L266.72 562.646ZM264.761 562.86L272.422 605.671L237.27 608.561L234.095 566.199L264.761 562.86ZM324.504 601.39L274.46 605.522L271.051 586.428L315.118 581.226L316.706 557.123L327.737 555.903L323.818 574.034L324.504 601.39ZM265.231 447.27L274.186 491.023L228.746 496.289L225.474 452.707L265.231 447.27ZM276.223 490.788L267.23 447.056L333.851 438.087L337.907 483.831L276.223 490.788ZM322.094 305.051L221.535 297.452L231.097 236.853L238.132 237.431H322.839L329.638 239.764L319.743 278.701L322.094 305.051ZM316.039 112.401C315.941 123.917 318.234 161.912 351.603 174.926L347.802 199.586L327.052 193.721L294.25 121.819L316.039 112.401ZM288.607 124.302L321.918 197.295L320.84 226.236H254.63L236.878 146.607L288.607 124.302ZM233.782 151.659L250.417 226.321H238.661L191.634 222.511L190.595 153.585L233.782 151.659ZM188.479 153.799L189.518 222.447L113.099 216.261C113.413 205.13 113.354 180.364 113.099 157.138L188.479 153.799ZM33.0949 102.426L110.826 114.606C111.218 149.861 111.551 199.821 111.159 216.111L13.6572 208.212L33.0949 102.426ZM229.04 236.831L214.736 327.185H191.634V233.663L229.04 236.831ZM148.82 304.174H189.616V327.185H144.157L148.82 304.174ZM216.284 330.46L220.438 304.088L322.643 311.815L328.364 376.417L220.595 387.741L216.284 330.46ZM328.756 380.827L333.243 431.473L224.964 446.028L220.908 392.151L328.756 380.827ZM229.255 502.946L338.495 490.531L339.514 502.154L328.168 553.699L233.919 564.102L229.255 502.946ZM238.171 649.061L242.834 696.902H211.307C211.856 681.126 212.404 665.35 212.776 653.492C213.462 632.236 213.462 632.236 212.169 631.529L211.209 633.67L209.249 633.777C209.249 635.639 208.368 664.772 207.29 695.853L116.117 648.269L112.903 579.771L231.959 566.563L238.171 649.061ZM104.928 580.563L104.282 668.582L42.853 671.815L40.58 585.571L104.928 580.563ZM42.9705 676.096V674.084L106.378 670.809L107.025 580.456L110.944 580.028L114.236 649.788L207.251 698.486C207.094 702.767 206.957 707.177 206.8 711.479L44.1658 722.717L42.9705 676.096Z" fill="white"/>
<path d="M135.633 672.885L46.8896 679.692V710.815L193.378 702.168L135.633 672.885Z" fill="#E04385" fill-opacity="0.6"/>
<path d="M318.45 319.907L229.686 313.785L224.2 330.417L227.218 380.014L323.583 367.534L318.45 319.907Z" fill="#E04385" fill-opacity="0.6"/>
<path d="M104.125 108.612L102.656 17.4028H59.293L46.7134 99.4291L104.125 108.612Z" fill="#E04385" fill-opacity="0.6"/>
<path d="M312.591 216.411L316.999 196.653L286.491 133.25L247.341 154.291L260.391 214.249L312.591 216.411Z" fill="#E04385" fill-opacity="0.5"/>
<path d="M243.157 39.3809C248.565 39.6575 253.21 35.5795 253.637 30.1815L256.138 -1.48589C256.573 -6.99516 252.457 -11.8129 246.947 -12.243L148.286 -19.9456C142.84 -20.3707 138.061 -16.348 137.551 -10.9099L134.334 23.378C133.803 29.0424 138.098 34.0084 143.78 34.2989L243.157 39.3809Z" fill="#E04385" fill-opacity="0.5"/>
</g>
</g>
<defs>
<clipPath id="clip0_1099_338">
<rect width="375" height="812" rx="16" fill="white"/>
</clipPath>
</defs>
</svg>
